PathFileType	4	(X/Y/Z)	C:\Users\dell\Documents\OpenSim\4.1\20210318\TRC_File\LX_20210318_static_0001.trc
DataRate	CameraRate	NumFrames	NumMarkers	Units	OrigDataRate	OrigDataStartFrame	OrigNumFrames
100.000000	100.000000	4	38	mm	100.000000	262	300
Frame#	Time	Sternum			R.Acromium			L.Acromium			R.Arm			L.Arm			R.Hand			L.Hand			R.ASIS			L.ASIS			V.Sacral			R.Thigh.Upper			R.Thigh.Front			R.Thigh.Rear			R.Knee.Lat			R.Knee.Med			R.Shank.Upper			R.Shank.Front			R.Shank.Rear			R.Ankle.Lat			R.Ankle.Med			R.Heel			R.Toe.Lat			R.Toe.Med			R.Toe.Tip			L.Thigh.Upper			L.Thigh.Front			L.Thigh.Rear			L.Knee.Lat			L.Knee.Med			L.Shank.Upper			L.Shank.Front			L.Shank.Rear			L.Ankle.Lat			L.Ankle.Med			L.Heel			L.Toe.Lat			L.Toe.Med			L.Toe.Tip			
		X1	Y1	Z1	X2	Y2	Z2	X3	Y3	Z3	X4	Y4	Z4	X5	Y5	Z5	X6	Y6	Z6	X7	Y7	Z7	X8	Y8	Z8	X9	Y9	Z9	X10	Y10	Z10	X11	Y11	Z11	X12	Y12	Z12	X13	Y13	Z13	X14	Y14	Z14	X15	Y15	Z15	X16	Y16	Z16	X17	Y17	Z17	X18	Y18	Z18	X19	Y19	Z19	X20	Y20	Z20	X21	Y21	Z21	X22	Y22	Z22	X23	Y23	Z23	X24	Y24	Z24	X25	Y25	Z25	X26	Y26	Z26	X27	Y27	Z27	X28	Y28	Z28	X29	Y29	Z29	X30	Y30	Z30	X31	Y31	Z31	X32	Y32	Z32	X33	Y33	Z33	X34	Y34	Z34	X35	Y35	Z35	X36	Y36	Z36	X37	Y37	Z37	X38	Y38	Z38	

263	2.62	-110.9093627929688	1296.610595703125	-5.101553916931152	-239.1641082763672	1450.5498046875	124.1681060791016	-238.9664001464844	1458.982666015625	-136.4102478027344	-307.6518249511719	1428.680297851563	430.6300048828125	-292.6281127929688	1426.290649414063	-448.7142028808594	-297.0933227539063	1428.926635742188	681.7108154296875	-257.7489013671875	1408.733764648438	-681.0546264648438	-137.1372375488281	973.9457397460938	130.3940887451172	-121.1815490722656	961.9583129882813	-100.8074340820313	-316.5818786621094	963.3887939453125	-5.107376575469971	-217.4639129638672	646.1478881835938	169.2246856689453	-154.8761291503906	617.4401245117188	99.64840698242188	-223.7375183105469	554.293212890625	167.0458068847656	-247.7049713134766	465.0386962890625	169.8171844482422	-251.3020324707031	461.788330078125	39.93930435180664	-255.3882446289063	408.0944519042969	169.6115112304688	-206.6211242675781	358.0298461914063	103.5458755493164	-272.8733825683594	289.2449951171875	175.4119567871094	-292.9322204589844	55.77367401123047	154.8207244873047	-276.9345092773438	81.71556091308594	70.24243927001953	-331.128173828125	25.27005386352539	97.53515625	-175.2517395019531	21.13945579528809	199.2879180908203	-122.7128295898438	20.30323028564453	108.4362106323242	-83.02040863037109	25.11690139770508	142.4816741943359	-190.9838409423828	667.834228515625	-162.9091644287109	-148.0342102050781	628.1311645507813	-94.25241088867188	-196.6507263183594	570.4116821289063	-160.6139221191406	-217.5267639160156	463.5087280273438	-163.3599700927734	-272.3341674804688	457.8686828613281	-44.09416198730469	-224.6723785400391	402.9606018066406	-164.1915283203125	-203.8572540283203	357.4046325683594	-97.83364105224609	-241.6828765869141	297.5266418457031	-167.4732818603516	-288.4311828613281	53.63113784790039	-150.8671722412109	-273.6740417480469	75.73931121826172	-62.36912155151367	-339.2668762207031	24.55539131164551	-94.1527099609375	-183.6016387939453	20.91064262390137	-188.4291076660156	-131.6598968505859	22.66573715209961	-102.6677017211914	-92.36006927490234	24.40718460083008	-140.1554260253906	
264	2.63	-110.8409729003906	1296.59521484375	-5.095237731933594	-239.0705108642578	1450.5693359375	124.1605682373047	-238.8955230712891	1458.985717773438	-136.4046630859375	-307.5558166503906	1428.79736328125	430.6363220214844	-292.6443786621094	1426.268188476563	-448.6785888671875	-296.9508666992188	1429.176879882813	681.6879272460938	-257.8274841308594	1408.704345703125	-681.0340576171875	-137.0816955566406	973.964111328125	130.3944549560547	-121.1687698364258	961.9482421875	-100.812629699707	-316.5453796386719	963.3899536132813	-5.080843925476074	-217.4146575927734	646.144287109375	169.23388671875	-154.8306121826172	617.44384765625	99.64923858642578	-223.6973419189453	554.2770385742188	167.0677490234375	-247.6664733886719	465.0261535644531	169.8296661376953	-251.2819519042969	461.7720336914063	39.95878219604492	-255.3622589111328	408.1033630371094	169.6089782714844	-206.622802734375	358.0222778320313	103.5406875610352	-272.8534545898438	289.2431335449219	175.4202117919922	-292.9200439453125	55.78281021118164	154.8260498046875	-276.9263610839844	81.72877502441406	70.2432861328125	-331.1184997558594	25.26837348937988	97.53627014160156	-175.24267578125	21.1432991027832	199.2846832275391	-122.7004089355469	20.31549453735352	108.4390716552734	-83.01589965820313	25.11358833312988	142.4730377197266	-190.9986877441406	667.840087890625	-162.9003601074219	-148.0442199707031	628.1102905273438	-94.25733947753906	-196.6484375	570.4180908203125	-160.5951690673828	-217.538818359375	463.5119323730469	-163.3547515869141	-272.3767395019531	457.861328125	-44.07418823242188	-224.6917877197266	402.9513549804688	-164.1712799072266	-203.8649139404297	357.4028015136719	-97.8443603515625	-241.6821441650391	297.5244140625	-167.4720306396484	-288.4406433105469	53.62246704101563	-150.8570251464844	-273.6727600097656	75.73463439941406	-62.37215042114258	-339.2646484375	24.54104423522949	-94.1422119140625	-183.6087493896484	20.90761375427246	-188.4341125488281	-131.6576995849609	22.6652889251709	-102.6639785766602	-92.37520599365234	24.39426803588867	-140.1606140136719	
265	2.64	-110.7625350952148	1296.585693359375	-5.091452598571777	-238.9685363769531	1450.582153320313	124.1464996337891	-238.8325805664063	1458.975830078125	-136.3831939697266	-307.4533081054688	1428.914672851563	430.652587890625	-292.6605529785156	1426.250122070313	-448.6622924804688	-296.8034973144531	1429.40478515625	681.6639404296875	-257.8953552246094	1408.683471679688	-680.9949951171875	-137.0291900634766	973.96533203125	130.3915100097656	-121.1487426757813	961.9541625976563	-100.8205871582031	-316.511962890625	963.3928833007813	-5.040079116821289	-217.3664703369141	646.156005859375	169.2537384033203	-154.7715606689453	617.4454345703125	99.66156005859375	-223.6440887451172	554.2898559570313	167.0747680664063	-247.6433410644531	465.0274047851563	169.8433532714844	-251.2536468505859	461.7857666015625	39.97507476806641	-255.3411254882813	408.0895385742188	169.6217498779297	-206.6005249023438	358.0325622558594	103.5566177368164	-272.8290710449219	289.2480773925781	175.4330596923828	-292.9211730957031	55.76440811157227	154.8192749023438	-276.9328002929688	81.72515869140625	70.25307464599609	-331.128662109375	25.27644538879395	97.540771484375	-175.2477264404297	21.13904762268066	199.2903747558594	-122.7051162719727	20.32343482971191	108.4318542480469	-83.01779174804688	25.11592674255371	142.4706726074219	-191.0099639892578	667.8355712890625	-162.9068145751953	-148.0320434570313	628.1290893554688	-94.27423858642578	-196.6606903076172	570.4295043945313	-160.625244140625	-217.5528259277344	463.5093078613281	-163.35302734375	-272.3718872070313	457.8659973144531	-44.05416488647461	-224.7064514160156	402.9569396972656	-164.1795043945313	-203.8689880371094	357.40966796875	-97.83937072753906	-241.6955108642578	297.5280456542969	-167.4614715576172	-288.4446105957031	53.62153244018555	-150.8548889160156	-273.6719360351563	75.72893524169922	-62.35912322998047	-339.2670288085938	24.54144668579102	-94.13422393798828	-183.6159362792969	20.90351676940918	-188.4327697753906	-131.6661834716797	22.66279602050781	-102.6807098388672	-92.37718200683594	24.40450477600098	-140.1607360839844	
266	2.65	-110.6768646240234	1296.579956054688	-5.090688705444336	-238.8526763916016	1450.602294921875	124.1425552368164	-238.7543334960938	1458.988647460938	-136.3704986572266	-307.3601989746094	1429.001342773438	430.6275634765625	-292.6640625	1426.251098632813	-448.6230163574219	-296.6556091308594	1429.57763671875	681.6626586914063	-257.9332885742188	1408.679077148438	-680.973876953125	-136.9835815429688	973.9495849609375	130.3771057128906	-121.1517639160156	961.9417114257813	-100.8176879882813	-316.4805908203125	963.396728515625	-5.012807846069336	-217.3321533203125	646.1464233398438	169.2650451660156	-154.7196807861328	617.4500122070313	99.65824890136719	-223.6470184326172	554.2703247070313	167.0703887939453	-247.6307525634766	465.0164794921875	169.8461608886719	-251.2495574951172	461.7746887207031	39.98103713989258	-255.3062744140625	408.0987548828125	169.6345977783203	-206.6137237548828	358.0016479492188	103.5426406860352	-272.8154602050781	289.2470092773438	175.4469146728516	-292.9177856445313	55.76255035400391	154.8308258056641	-276.9601440429688	81.75251770019531	70.23912048339844	-331.129638671875	25.26976203918457	97.54842376708984	-175.2432556152344	21.14362525939941	199.2922210693359	-122.7061920166016	20.31881713867188	108.4278793334961	-83.02182769775391	25.11774826049805	142.4645233154297	-191.0165863037109	667.8438110351563	-162.8941955566406	-148.0652313232422	628.1237182617188	-94.28501892089844	-196.6824493408203	570.4295043945313	-160.6416931152344	-217.5632476806641	463.5054016113281	-163.3583374023438	-272.3768920898438	457.8423461914063	-44.03713607788086	-224.7146301269531	402.9609680175781	-164.1739807128906	-203.8549346923828	357.411376953125	-97.83522796630859	-241.6949462890625	297.5298156738281	-167.4576721191406	-288.4393920898438	53.63164520263672	-150.8531951904297	-273.6742553710938	75.73340606689453	-62.36832809448242	-339.2616882324219	24.5538158416748	-94.13301086425781	-183.6196746826172	20.90584945678711	-188.4278106689453	-131.6632995605469	22.67201995849609	-102.6695709228516	-92.37155151367188	24.40646743774414	-140.1649322509766	
